<svg viewBox="0 0 900 580" xmlns="http://www.w3.org/2000/svg" font-family="system-ui,-apple-system,sans-serif">
  <!-- Browser chrome -->
  <rect width="900" height="580" fill="#e2e8f0" rx="10"/>
  <rect x="0" y="0" width="900" height="42" fill="#f8fafc" rx="10"/>
  <rect x="0" y="32" width="900" height="10" fill="#f8fafc"/>
  <circle cx="22" cy="21" r="7" fill="#ef4444"/>
  <circle cx="44" cy="21" r="7" fill="#f59e0b"/>
  <circle cx="66" cy="21" r="7" fill="#22c55e"/>
  <rect x="120" y="9" width="620" height="24" rx="5" fill="#e2e8f0"/>
  <text x="430" y="26" text-anchor="middle" font-size="12" fill="#64748b">localhost:5173</text>

  <!-- App bg -->
  <rect x="0" y="42" width="900" height="538" fill="#f1f5f9"/>

  <!-- Top nav bar -->
  <rect x="0" y="42" width="900" height="52" fill="#1e3a8a"/>
  <text x="30" y="73" font-size="13" fill="#93c5fd">← Upload</text>
  <text x="110" y="74" font-size="18" font-weight="700" fill="white">Haseeb Mir</text>
  <text x="820" y="73" font-size="12" fill="#93c5fd">Profile #1</text>

  <!-- Tab bar -->
  <rect x="30" y="108" width="840" height="44" rx="12" fill="white"/>
  <!-- Active tab: Contact -->
  <rect x="36" y="112" width="80" height="36" rx="9" fill="#1d4ed8"/>
  <text x="76" y="135" text-anchor="middle" font-size="13" font-weight="600" fill="white">Contact</text>
  <!-- Inactive tabs -->
  <text x="152" y="135" text-anchor="middle" font-size="13" fill="#64748b">Summary</text>
  <text x="228" y="135" text-anchor="middle" font-size="13" fill="#64748b">Skills</text>
  <text x="310" y="135" text-anchor="middle" font-size="13" fill="#64748b">Experience</text>
  <text x="400" y="135" text-anchor="middle" font-size="13" fill="#64748b">Projects</text>
  <text x="480" y="135" text-anchor="middle" font-size="13" fill="#64748b">Education</text>
  <text x="572" y="135" text-anchor="middle" font-size="13" fill="#64748b">Certifications</text>
  <text x="660" y="135" text-anchor="middle" font-size="13" fill="#64748b">Export</text>

  <!-- Content card -->
  <rect x="30" y="168" width="840" height="360" rx="12" fill="white"/>

  <!-- Contact form -->
  <text x="54" y="200" font-size="16" font-weight="600" fill="#1e293b">Contact Info</text>

  <!-- Form fields -->
  <g transform="translate(54, 218)">
    <text x="0" y="16" font-size="10" font-weight="600" fill="#94a3b8" letter-spacing="1">FULL NAME</text>
    <rect x="0" y="22" width="360" height="36" rx="8" fill="white" stroke="#cbd5e1" stroke-width="1.5"/>
    <text x="12" y="46" font-size="13" fill="#374151">Haseeb Mir</text>

    <text x="380" y="16" font-size="10" font-weight="600" fill="#94a3b8" letter-spacing="1">EMAIL</text>
    <rect x="380" y="22" width="360" height="36" rx="8" fill="white" stroke="#cbd5e1" stroke-width="1.5"/>
    <text x="392" y="46" font-size="13" fill="#374151">haseebmir.hm@gmail.com</text>

    <text x="0" y="76" font-size="10" font-weight="600" fill="#94a3b8" letter-spacing="1">PHONE</text>
    <rect x="0" y="82" width="360" height="36" rx="8" fill="white" stroke="#cbd5e1" stroke-width="1.5"/>
    <text x="12" y="106" font-size="13" fill="#374151">+91-9315839785</text>

    <text x="380" y="76" font-size="10" font-weight="600" fill="#94a3b8" letter-spacing="1">LOCATION</text>
    <rect x="380" y="82" width="360" height="36" rx="8" fill="white" stroke="#cbd5e1" stroke-width="1.5"/>
    <text x="392" y="106" font-size="13" fill="#374151">India</text>

    <!-- Links section -->
    <text x="0" y="142" font-size="10" font-weight="600" fill="#94a3b8" letter-spacing="1">LINKS</text>
    <text x="0" y="162" font-size="13" font-weight="600" fill="#374151">GitHub:</text>
    <text x="60" y="162" font-size="13" fill="#3b82f6">https://github.com/haseeb-heaven</text>
    <text x="0" y="182" font-size="13" font-weight="600" fill="#374151">LinkedIn:</text>
    <text x="68" y="182" font-size="13" fill="#3b82f6">https://linkedin.com/in/haseeb-mir</text>

    <!-- Save button -->
    <rect x="0" y="204" width="148" height="38" rx="9" fill="#1d4ed8"/>
    <text x="74" y="228" text-anchor="middle" font-size="13" font-weight="600" fill="white">Save Contact</text>
  </g>
</svg>
